<svg xmlns="http://www.w3.org/2000/svg" viewBox="0 0 64 64" role="img" aria-labelledby="title">
  <title id="title">AuctionX auction seal</title>
  <defs>
    <linearGradient id="gold" x1="12" y1="8" x2="52" y2="56" gradientUnits="userSpaceOnUse">
      <stop stop-color="#FFE7A2"/>
      <stop offset=".48" stop-color="#E5B85B"/>
      <stop offset="1" stop-color="#B7791F"/>
    </linearGradient>
  </defs>
  <path d="M32 4 38.2 9.2l8.1-1.1 3.6 7.3 7.3 3.6-1.1 8.1L61 33l-4.9 5.9 1.1 8.1-7.3 3.6-3.6 7.3-8.1-1.1L32 62l-6.2-5.2-8.1 1.1-3.6-7.3-7.3-3.6 1.1-8.1L3 33l4.9-5.9-1.1-8.1 7.3-3.6 3.6-7.3 8.1 1.1L32 4Z" fill="url(#gold)"/>
  <path d="M32 11.5c11.9 0 21.5 9.6 21.5 21.5S43.9 54.5 32 54.5 10.5 44.9 10.5 33 20.1 11.5 32 11.5Z" fill="#124B43" stroke="#FFF2C8" stroke-width="2"/>
  <path d="m22 29.2 16.7-10.1 3.6 5.9-16.7 10.1-3.6-5.9Zm17.8-9.5 3.4-2.1 4.5 7.5-3.4 2.1-4.5-7.5ZM21.8 36.7l9.7-5.9 2.8 4.6-9.7 5.9-2.8-4.6Z" fill="#FFF2C8"/>
  <path d="M18.5 44.5h27M22 40.5h20" fill="none" stroke="#E5B85B" stroke-width="2.6" stroke-linecap="round"/>
  <circle cx="16.5" cy="21" r="1.5" fill="#E5B85B"/><circle cx="47.5" cy="45" r="1.5" fill="#E5B85B"/>
</svg>
